<svg width="6" height="10" viewBox="0 0 6 10" fill="none" xmlns="http://www.w3.org/2000/svg">
<g clip-path="url(#clip0_775_797)">
<path d="M1.20023 0.609375H1.10023C1.00023 0.609375 0.900228 0.609375 0.800228 0.709375C0.500228 0.909375 0.300228 1.10938 0.100228 1.40938V1.50937C0.000227936 1.80938 0.100228 2.20937 0.300228 2.40937C1.20023 3.30937 2.00023 4.10938 2.90023 5.00938C2.90023 5.00938 3.00023 5.00938 3.00023 5.10938C3.00023 5.10938 2.90023 5.10938 2.90023 5.20937C2.10023 6.10938 1.20023 6.90937 0.300228 7.80937L0.200228 7.90938C0.000227928 8.10938 -0.0997721 8.50937 0.100228 8.80937C0.300228 9.20937 0.600228 9.50937 1.10023 9.60938C1.20023 9.60938 1.20023 9.60938 1.30023 9.60938C1.60023 9.60938 1.80023 9.40938 2.00023 9.20938C3.00023 8.10938 4.20023 6.90937 5.30023 5.80937C5.30023 5.80937 5.40023 5.70937 5.40023 5.60938C5.60023 5.30937 5.60023 4.70937 5.30023 4.40937C4.20023 3.30937 3.00023 2.10938 1.90023 1.00938C1.70023 0.809375 1.50023 0.609375 1.20023 0.609375Z" fill="white"/>
</g>
<defs>
<clipPath id="clip0_775_797">
<rect width="5.6" height="9" fill="white" transform="translate(0 0.609375)"/>
</clipPath>
</defs>
</svg>
