<svg width="25" height="19" viewBox="0 0 25 19" fill="none" xmlns="http://www.w3.org/2000/svg">
<path d="M12.4 0.808983C16.1 0.808983 19.8 0.808983 23.6 0.808983C24.6 0.808983 24.9 1.10899 24.9 2.10899C24.9 7.10899 24.9 12.209 24.9 17.209C24.9 18.209 24.6 18.509 23.6 18.509C16.2 18.509 8.8 18.509 1.3 18.509C0.3 18.509 0 18.209 0 17.209C0 12.209 0 7.10899 0 2.10899C0 1.00899 0.2 0.708984 1.4 0.708984C5 0.808984 8.7 0.808983 12.4 0.808983ZM23.1 4.10899C22.8 4.30899 22.7 4.40899 22.5 4.50899C19.5 6.40899 16.5 8.20899 13.5 10.109C12.8 10.609 12.2 10.609 11.5 10.109C8.5 8.00899 5.5 5.90898 2.4 3.80898C2.2 3.60898 2 3.50899 1.8 3.40899C1.8 7.90899 1.8 12.309 1.8 16.709C8.9 16.709 16 16.709 23 16.709C23.1 12.509 23.1 8.40899 23.1 4.10899ZM22.2 2.60899C16 2.60899 10 2.60899 3.8 2.60899C6.8 4.70899 9.6 6.60899 12.5 8.60899C15.7 6.60899 18.9 4.60899 22.2 2.60899Z" fill="#AB177B"/>
</svg>
