<svg width="18" height="31" viewBox="0 0 18 31" fill="none" xmlns="http://www.w3.org/2000/svg">
<path d="M0.700195 9.60977C0.900195 5.50977 2.5002 2.80977 5.8002 1.30977C9.1002 -0.0902295 12.2002 0.40977 14.8002 2.90977C17.4002 5.40977 18.2002 8.50977 16.9002 11.9098C14.8002 16.9098 12.4002 21.9098 10.1002 26.8098C9.9002 27.1098 9.4002 27.5098 9.1002 27.5098C8.7002 27.5098 8.2002 27.1098 8.1002 26.7098C6.9002 24.2098 5.7002 21.7098 4.6002 19.2098C3.6002 17.1098 2.6002 15.0098 1.6002 12.8098C1.1002 11.6098 0.900195 10.3098 0.700195 9.60977ZM9.0002 5.00977C7.0002 5.00977 5.4002 6.60977 5.5002 8.60977C5.5002 10.5098 7.1002 12.1098 9.1002 12.1098C11.1002 12.1098 12.7002 10.5098 12.7002 8.50977C12.6002 6.60977 11.0002 5.00977 9.0002 5.00977Z" fill="#AB177B"/>
<path d="M6.7002 26.7091C5.2002 27.1091 4.0002 27.5091 2.6002 27.9091C4.2002 30.1091 13.2002 30.1091 15.3002 28.1091C14.2002 27.2091 12.8002 27.2091 11.6002 26.8091C12.0002 25.5091 12.0002 25.4091 13.3002 25.8091C14.2002 26.0091 15.0002 26.3091 15.8002 26.7091C17.1002 27.5091 17.1002 28.9091 15.8002 29.6091C14.8002 30.1091 13.8002 30.5091 12.7002 30.6091C9.60019 31.1091 6.60019 31.1091 3.6002 30.2091C3.0002 30.1091 2.4002 29.8091 2.0002 29.4091C1.1002 28.7091 1.1002 27.5091 2.0002 27.0091C3.1002 26.4091 4.5002 26.0091 5.7002 25.7091C5.9002 25.6091 6.4002 26.3091 6.7002 26.7091Z" fill="#AB177B"/>
</svg>
