<svg width="20" height="22" viewBox="0 0 20 22" fill="none" xmlns="http://www.w3.org/2000/svg">
<path d="M19.6999 3.81022C19.2999 2.31022 18.1999 1.51022 16.8999 0.810216C16.5999 0.610216 16.1999 0.610217 15.8999 0.710217C14.8999 0.910217 14.0999 1.41022 13.7999 2.51022C13.4999 3.71022 13.1999 4.81022 12.9999 6.01022C12.8999 6.31022 13.0999 6.81022 13.2999 7.11022C13.6999 7.61022 14.1999 8.11022 14.6999 8.51022C14.9999 8.71022 14.9999 8.91022 14.8999 9.31022C14.0999 11.2102 12.8999 12.9102 11.2999 14.3102C10.2999 15.3102 9.1999 16.1102 7.8999 16.8102C7.3999 16.4102 6.8999 16.0102 6.3999 15.6102C5.7999 15.1102 5.1999 14.9102 4.3999 15.2102C3.3999 15.6102 2.3999 15.9102 1.3999 16.3102C0.299902 16.7102 -9.76548e-05 17.7102 -0.100098 18.7102C-0.100098 19.1102 0.0999023 19.5102 0.299902 19.8102C0.999902 20.8102 1.8999 21.5102 2.9999 21.9102C3.3999 21.9102 3.7999 21.9102 4.2999 21.9102C4.9999 21.8102 5.5999 21.7102 6.2999 21.5102C13.0999 19.6102 17.0999 15.1102 18.9999 8.51022C19.2999 7.61022 19.3999 6.61022 19.4999 5.61022C19.6999 5.01022 19.6999 4.41022 19.6999 3.81022Z" fill="#AB177B"/>
</svg>
