<svg width="18" height="17" viewBox="0 0 18 17" fill="none" xmlns="http://www.w3.org/2000/svg">
<path d="M17.6999 1.00859C17.6999 1.10859 17.6999 1.20859 17.6999 1.30859C17.5999 1.50859 17.4999 1.60859 17.4999 1.80859C15.8999 6.30859 14.1999 10.8086 12.5999 15.3086C12.1999 16.3086 11.3999 16.5086 10.5999 15.9086C9.79991 15.3086 8.89991 14.7086 8.09991 14.1086C7.39991 13.6086 6.6999 13.1086 5.8999 12.5086C9.3999 9.00859 12.9999 5.50859 16.4999 2.10859C16.4999 2.10859 16.4999 2.10859 16.3999 2.00859C12.3999 5.10859 8.3999 8.30859 4.3999 11.4086C3.2999 10.6086 2.19991 9.80859 1.09991 9.00859C0.799915 8.80859 0.599902 8.40859 0.399902 8.20859C0.399902 8.00859 0.399902 7.90859 0.399902 7.70859C0.599902 7.40859 0.799905 7.10859 1.19991 6.90859C6.49991 4.90859 11.7999 2.90859 17.0999 0.808594C17.2999 0.808594 17.4999 0.808594 17.6999 1.00859Z" fill="white"/>
<path d="M3.5 12.3086C4.9 13.3086 6.3 14.3086 7.7 15.3086C6.9 15.8086 6.2 16.3086 5.5 16.8086C5 17.1086 4.4 16.8086 4.2 16.2086C4 14.9086 3.8 13.7086 3.5 12.3086Z" fill="white"/>
</svg>
