<svg width="24" height="25" viewBox="0 0 24 25" fill="none" xmlns="http://www.w3.org/2000/svg">
<path d="M12.3999 24.0101C5.9999 24.0101 0.899902 18.8102 0.899902 12.4102C0.899902 6.01016 6.0999 0.910156 12.4999 0.910156C18.8999 0.910156 23.9999 6.11016 23.9999 12.4102C23.9999 18.8102 18.7999 24.0101 12.3999 24.0101ZM9.1999 9.01015C8.8999 11.3101 8.8999 13.6102 9.1999 15.9102C11.3999 15.9102 13.4999 15.9102 15.6999 15.9102C15.9999 13.6102 15.9999 11.3101 15.6999 9.01015C13.4999 9.01015 11.3999 9.01015 9.1999 9.01015ZM7.8999 9.01015C6.2999 9.01015 4.5999 9.01015 2.8999 9.01015C2.7999 9.01015 2.5999 9.21016 2.4999 9.41016C1.7999 11.5102 1.7999 13.5102 2.4999 15.6102C2.5999 15.9102 2.7999 16.0101 3.0999 16.0101C3.8999 16.0101 4.5999 16.0101 5.3999 16.0101C6.2999 16.0101 7.0999 16.0101 7.9999 16.0101C7.8999 13.6101 7.8999 11.3101 7.8999 9.01015ZM16.9999 15.9102C18.6999 15.9102 20.3999 15.9102 21.9999 15.9102C22.0999 15.9102 22.2999 15.6102 22.3999 15.4102C22.9999 13.4102 22.9999 11.5101 22.4999 9.51015C22.3999 9.01015 22.1999 8.91016 21.6999 8.91016C21.0999 8.91016 20.4999 8.91016 19.8999 8.91016C18.8999 8.91016 17.9999 8.91016 17.0999 8.91016C16.9999 11.3102 16.9999 13.6102 16.9999 15.9102ZM15.4999 7.81015C15.1999 6.11015 14.7999 4.61016 13.8999 3.21016C13.7999 3.01016 13.5999 2.71015 13.3999 2.51015C12.6999 1.91015 12.0999 1.91015 11.4999 2.51015C11.3999 2.61015 11.2999 2.71015 11.1999 2.81015C10.0999 4.31015 9.6999 6.01015 9.3999 7.81015C11.3999 7.81015 13.3999 7.81015 15.4999 7.81015ZM9.3999 17.1102C9.6999 18.9102 10.0999 20.7102 11.2999 22.1102C12.0999 23.1102 12.9999 23.1101 13.7999 22.0101C14.8999 20.5101 15.2999 18.8102 15.5999 17.1102C13.3999 17.1102 11.3999 17.1102 9.3999 17.1102ZM10.0999 2.41016C7.5999 2.61016 3.7999 5.71015 3.2999 7.81015C4.8999 7.81015 6.5999 7.81015 8.1999 7.81015C8.4999 5.91015 8.9999 4.11016 10.0999 2.41016ZM16.6999 7.81015C18.3999 7.81015 19.9999 7.81015 21.6999 7.81015C20.9999 5.51015 17.0999 2.41016 14.7999 2.41016C15.8999 4.11016 16.2999 5.91015 16.6999 7.81015ZM3.0999 17.1102C4.6999 20.0102 6.8999 21.8102 10.0999 22.6102C8.9999 20.8102 8.4999 19.0102 8.0999 17.1102C6.4999 17.1102 4.8999 17.1102 3.0999 17.1102ZM14.6999 22.6102C17.8999 21.7102 20.1999 20.0102 21.6999 17.1102C19.9999 17.1102 18.2999 17.1102 16.6999 17.1102C16.2999 19.0102 15.8999 20.8102 14.6999 22.6102Z" fill="#AB177B"/>
</svg>
