<svg width="181" height="62" viewBox="0 0 181 62" fill="none" xmlns="http://www.w3.org/2000/svg">
<path fill-rule="evenodd" clip-rule="evenodd" d="M17.8855 10.1V18.4L2.88548 43C-3.11452 54.2 0.285478 61 12.6855 61.7H38.0855C50.3855 61 53.8855 54.5 47.5855 43L32.3855 18.4V0L29.4855 5.2V19.2L45.1855 44.5C50.7855 53.5 48.1855 58.4 38.0855 58.9H12.6855C2.18548 58.3 0.0854774 53 5.18548 44.4L20.6855 19.2V5.2L17.8855 10.1ZM26.4855 9.4V19.3L44.5855 48.4C46.8855 53 44.0855 56 39.9855 56.5H10.6855C6.48548 56.2 3.78548 52.8 6.08548 48.4L20.7855 24.3V29.2L8.38548 49.7C7.18548 52.2 7.98548 53.5 10.5855 53.7H39.9855C42.3855 53.6 42.8855 52.1 42.1855 49.7L23.7855 20.3V13.8L26.4855 9.4Z" fill="white"/>
<path d="M159.629 46.2553C159.529 47.1142 159.211 47.7779 158.675 48.2464C158.143 48.7112 157.435 48.9436 156.55 48.9436C155.591 48.9436 154.821 48.5996 154.241 47.9118C153.665 47.2239 153.377 46.3036 153.377 45.1509V44.3701C153.377 43.6153 153.51 42.9516 153.778 42.3789C154.05 41.8063 154.433 41.3676 154.927 41.0627C155.422 40.7541 155.994 40.5997 156.645 40.5997C157.508 40.5997 158.199 40.8414 158.72 41.3248C159.24 41.8045 159.543 42.47 159.629 43.3215H158.552C158.459 42.6746 158.257 42.206 157.945 41.916C157.636 41.626 157.203 41.481 156.645 41.481C155.961 41.481 155.424 41.7338 155.033 42.2395C154.646 42.7452 154.453 43.4647 154.453 44.398V45.1844C154.453 46.0656 154.637 46.7665 155.005 47.2871C155.373 47.8076 155.888 48.0679 156.55 48.0679C157.145 48.0679 157.601 47.9341 157.917 47.6663C158.236 47.3949 158.448 46.9246 158.552 46.2553H159.629ZM160.661 45.7589C160.661 45.1677 160.776 44.6359 161.007 44.1637C161.241 43.6915 161.564 43.3271 161.977 43.0705C162.393 42.814 162.868 42.6857 163.399 42.6857C164.221 42.6857 164.885 42.9702 165.39 43.5391C165.9 44.108 166.154 44.8646 166.154 45.8091V45.8816C166.154 46.4691 166.041 46.9971 165.814 47.4656C165.591 47.9303 165.27 48.2929 164.849 48.5532C164.433 48.8134 163.953 48.9436 163.41 48.9436C162.592 48.9436 161.929 48.6591 161.419 48.0902C160.914 47.5213 160.661 46.7684 160.661 45.8314V45.7589ZM161.698 45.8816C161.698 46.5509 161.852 47.0882 162.161 47.4934C162.473 47.8987 162.89 48.1014 163.41 48.1014C163.935 48.1014 164.351 47.8969 164.66 47.4879C164.968 47.0751 165.123 46.4988 165.123 45.7589C165.123 45.097 164.965 44.5616 164.649 44.1526C164.336 43.7398 163.92 43.5335 163.399 43.5335C162.89 43.5335 162.479 43.7361 162.167 44.1414C161.854 44.5467 161.698 45.1268 161.698 45.8816ZM170.365 43.7231C170.209 43.6971 170.04 43.6841 169.858 43.6841C169.181 43.6841 168.722 43.9722 168.48 44.5486V48.832H167.448V42.7973H168.452L168.469 43.4944C168.807 42.9553 169.287 42.6857 169.908 42.6857C170.109 42.6857 170.261 42.7117 170.365 42.7638V43.7231ZM176.417 45.8816C176.417 46.8 176.207 47.5399 175.787 48.1014C175.367 48.6628 174.798 48.9436 174.08 48.9436C173.348 48.9436 172.771 48.7112 172.351 48.2464V51.1522H171.319V42.7973H172.262L172.312 43.4665C172.732 42.946 173.316 42.6857 174.063 42.6857C174.788 42.6857 175.361 42.959 175.781 43.5056C176.205 44.0522 176.417 44.8126 176.417 45.7868V45.8816ZM175.385 45.7644C175.385 45.084 175.24 44.5467 174.95 44.1526C174.66 43.7584 174.262 43.5614 173.757 43.5614C173.132 43.5614 172.663 43.8384 172.351 44.3924V47.2759C172.66 47.8262 173.132 48.1014 173.768 48.1014C174.262 48.1014 174.654 47.9062 174.945 47.5158C175.238 47.1216 175.385 46.5378 175.385 45.7644ZM177.756 48.291C177.756 48.1125 177.808 47.9638 177.912 47.8448C178.02 47.7258 178.179 47.6663 178.391 47.6663C178.603 47.6663 178.763 47.7258 178.871 47.8448C178.983 47.9638 179.038 48.1125 179.038 48.291C179.038 48.4621 178.983 48.6052 178.871 48.7205C178.763 48.8357 178.603 48.8934 178.391 48.8934C178.179 48.8934 178.02 48.8357 177.912 48.7205C177.808 48.6052 177.756 48.4621 177.756 48.291Z" fill="white"/>
<path d="M73.3859 31.2L74.4859 36.7L74.2859 36.8C73.9859 36 73.5859 35.2 72.9859 34.6C72.3859 34 71.6859 33.5 70.7859 33.1C69.9859 32.7 69.0859 32.6 68.1859 32.6C67.6859 32.6 67.1859 32.7 66.5859 32.8C66.0859 33 65.5859 33.2 65.1859 33.6C64.7859 33.9 64.6859 34.4 64.6859 34.9C64.6859 35.2 64.7859 35.5 64.9859 35.7C65.1859 35.9 65.3859 36.1 65.6859 36.3C65.9859 36.4 66.2859 36.6 66.6859 36.7C67.0859 36.8 67.3859 36.9 67.5859 37L71.3859 38.2C72.1859 38.4 72.8859 38.7 73.3859 38.9C73.9859 39.2 74.4859 39.5 74.8859 39.9C75.8859 40.9 76.3859 42.1 76.3859 43.6C76.3859 44.9 75.9859 46 75.2859 47.1C74.5859 48.1 73.5859 48.9 72.3859 49.4C71.1859 49.9 69.8859 50.2 68.5859 50.2C67.9859 50.2 67.5859 50.2 67.1859 50.1C66.7859 50 66.1859 49.9 65.3859 49.7C64.5859 49.5 63.9859 49.4 63.5859 49.4C63.2859 49.4 62.9859 49.6 62.6859 49.9L61.0859 42.9L61.3859 42.8C61.6859 43.7 61.9859 44.5 62.4859 45.1C62.8859 45.8 63.3859 46.4 64.0859 46.9C64.6859 47.4 65.3859 47.8 66.1859 48.1C66.9859 48.4 67.7859 48.5 68.5859 48.5C69.5859 48.5 70.3859 48.3 71.1859 48C71.9859 47.7 72.5859 47.2 73.0859 46.6C73.5859 46 73.7859 45.4 73.7859 44.7C73.7859 44 73.5859 43.4 73.1859 42.9C72.7859 42.4 72.3859 42.1 71.7859 41.8C71.2859 41.6 70.5859 41.3 69.6859 41L65.9859 39.8C64.6859 39.4 63.6859 38.9 62.9859 38.3C62.2859 37.7 61.9859 36.8 61.9859 35.6C61.9859 34.6 62.2859 33.7 62.8859 33C63.4859 32.3 64.2859 31.8 65.2859 31.5C66.2859 31.2 67.1859 31 68.2859 31C68.9859 31 69.7859 31.1 70.6859 31.3C71.5859 31.5 72.0859 31.6 72.3859 31.6C72.6859 31.7 73.0859 31.5 73.3859 31.2Z" fill="white"/>
<path d="M83.2863 34.9004V46.1004C83.2863 47.1004 83.3863 47.9004 83.5863 48.5004C83.7863 49.1004 84.2863 49.4004 85.0863 49.5004V49.7004H78.4863V49.5004C79.0863 49.4004 79.4863 49.2004 79.6863 48.9004C79.8863 48.6004 80.0863 48.3004 80.1863 47.9004C80.2863 47.5004 80.2863 47.0004 80.2863 46.3004V35.1004C80.2863 34.4004 80.2863 33.9004 80.1863 33.4004C80.0863 33.0004 79.9863 32.6004 79.6863 32.3004C79.4863 32.0004 78.9863 31.8004 78.4863 31.7004V31.4004H85.0863V31.7004C84.2863 31.8004 83.7863 32.1004 83.5863 32.7004C83.3863 33.2004 83.2863 33.9004 83.2863 34.9004Z" fill="white"/>
<path d="M105.885 49.7H98.7852C97.8852 49.7 97.1852 49.7 96.4852 49.6C95.7852 49.5 95.0852 49.4 94.4852 49.3C93.8852 49.2 93.1852 48.9 92.5852 48.6C91.9852 48.3 91.3852 47.9 90.7852 47.4C90.1852 46.9 89.6852 46.4 89.2852 45.8C88.8852 45.2 88.4852 44.6 88.1852 43.9C87.8852 43.2 87.6852 42.5 87.4852 41.8C87.3852 41.1 87.2852 40.4 87.2852 39.7C87.2852 38.3 87.4852 37.1 87.9852 36C88.4852 34.9 89.0852 34 89.9852 33.3C90.7852 32.6 91.7852 32 92.8852 31.7C93.9852 31.3 95.1852 31.2 96.5852 31.2L99.9852 31.5C100.385 31.6 100.585 31.6 100.785 31.6C101.285 31.6 101.685 31.4 101.985 31L102.985 36.2L102.685 36.3C102.385 35.5 101.885 34.9 101.285 34.4C100.685 33.9 99.9852 33.5 99.1852 33.2C98.3851 32.9 97.5852 32.8 96.7852 32.8C95.4852 32.8 94.3852 33.1 93.3852 33.7C92.4852 34.3 91.7852 35.1 91.2852 36.1C90.7852 37.1 90.5852 38.3 90.5852 39.6C90.5852 41.2 90.8852 42.7 91.5852 44.1C92.2852 45.5 93.1852 46.7 94.3852 47.5C95.5852 48.4 96.9852 48.8 98.5852 48.8C99.8852 48.8 100.685 48.6 101.085 48.1C101.385 47.6 101.585 46.8 101.585 45.6V41.2C101.585 40.5 101.585 40 101.485 39.6C101.385 39.2 101.285 38.8 100.985 38.5C100.685 38.2 100.385 38 99.7852 37.9V37.6H105.985V37.9C105.585 38 105.185 38.1 104.985 38.3C104.785 38.5 104.685 38.7 104.585 38.9C104.585 39.2 104.485 39.5 104.485 40V47C104.485 47.5 104.485 48 104.585 48.3C104.585 48.6 104.785 48.8 104.985 49C105.185 49.2 105.485 49.4 105.985 49.5V49.7H105.885Z" fill="white"/>
<path d="M117.186 43.1992L111.586 33.2992V46.0992C111.586 47.0992 111.686 47.8992 111.886 48.4992C112.086 49.0992 112.586 49.3992 113.386 49.4992V49.6992H107.986V49.4992C108.586 49.3992 108.986 49.1992 109.186 48.8992C109.486 48.5992 109.586 48.2992 109.686 47.8992C109.786 47.4992 109.786 46.9992 109.786 46.2992V35.0992C109.786 34.3992 109.786 33.8992 109.686 33.3992C109.586 32.9992 109.486 32.5992 109.186 32.2992C108.886 31.9992 108.486 31.7992 107.986 31.6992V31.3992H114.986V31.6992C114.686 31.7992 114.486 31.8992 114.486 32.1992C114.486 32.4992 114.586 32.7992 114.886 33.1992L118.086 38.9992L121.286 33.7992C121.786 32.9992 121.986 32.4992 121.986 32.0992C121.986 31.7992 121.786 31.5992 121.486 31.4992V31.1992H128.086V31.4992C127.286 31.5992 126.786 31.8992 126.586 32.4992C126.386 32.9992 126.286 33.7992 126.286 34.6992V45.8992C126.286 46.8992 126.386 47.6992 126.586 48.1992C126.786 48.7992 127.286 49.0992 128.086 49.1992V49.3992H121.486V49.1992C122.086 49.0992 122.486 48.9992 122.686 48.6992C122.986 48.3992 123.086 48.0992 123.186 47.6992C123.286 47.2992 123.286 46.7992 123.286 46.0992V33.2992L117.186 43.1992Z" fill="white"/>
<path d="M134.985 41.6004L133.385 46.0004C133.085 46.8004 132.985 47.5004 132.985 47.9004C132.985 48.3004 133.085 48.7004 133.385 49.0004C133.685 49.3004 133.985 49.4004 134.485 49.5004V49.7004H128.885V49.5004C129.285 49.4004 129.485 49.3004 129.685 49.2004C129.885 49.1004 130.085 48.9004 130.285 48.6004C130.685 48.0004 131.085 47.1004 131.485 46.0004L135.885 34.2004C135.985 34.0004 136.085 33.8004 136.085 33.6004C136.185 33.4004 136.185 33.3004 136.185 33.1004C136.185 32.9004 136.285 32.8004 136.285 32.6004C136.285 32.1004 135.985 31.8004 135.385 31.7004V31.4004H141.485V31.7004C140.985 31.8004 140.685 32.2004 140.685 32.7004C140.685 33.0004 140.785 33.3004 140.985 33.8004L145.685 47.5004C145.885 48.0004 146.085 48.4004 146.185 48.6004C146.285 48.8004 146.385 49.0004 146.585 49.2004C146.785 49.4004 147.085 49.5004 147.385 49.6004V49.8004H141.085V49.6004C141.985 49.4004 142.485 48.7004 142.485 47.6004C142.485 46.9004 142.285 46.3004 141.885 45.6004C141.485 44.9004 140.985 44.3004 140.285 43.7004C139.585 43.1004 138.785 42.6004 137.885 42.2004C136.985 41.8004 135.985 41.6004 134.985 41.6004ZM140.985 42.4004L137.885 33.5004L135.385 40.2004C136.485 40.2004 137.485 40.4004 138.485 40.8004C139.485 41.1004 140.285 41.7004 140.985 42.4004Z" fill="white"/>
</svg>
